<svg xmlns="http://www.w3.org/2000/svg" viewBox="0 0 3010.29 1257.8"><defs><style>.cls-1{fill:#fff;}.cls-2,.cls-4{fill:#f28c18;}.cls-3{fill:none;stroke:#f28c18;stroke-miterlimit:10;stroke-width:30px;}.cls-4{font-size:764.02px;font-family:Mograch-Regular, Mograch;}.cls-4,.cls-8{letter-spacing:-0.05em;}.cls-5{letter-spacing:-0.07em;}.cls-6{letter-spacing:-0.05em;}.cls-7{letter-spacing:-0.06em;}</style></defs><g id="Layer_2" data-name="Layer 2"><g id="Layer_1-2" data-name="Layer 1"><path class="cls-1" d="M138.64,1138.72C62.19,1138.72,0,1076.5,0,1000V256.94c0-76.47,62.19-138.69,138.64-138.69a137.48,137.48,0,0,1,61.74,14.59l746.5,371.55c46.6,22.71,77.29,72.24,76.85,124.09.43,51.85-30.24,101.39-76.85,124.1C908.38,762.65,168.77,1160.15,138.64,1138.72Z"/><path class="cls-2" d="M138.64,219.1a37.4,37.4,0,0,1,16.81,4L901.94,594.67a37.77,37.77,0,0,1,0,67.63L155.45,1033.84a37.65,37.65,0,0,1-54.6-33.82V256.94a37.85,37.85,0,0,1,37.79-37.84m0-30a67.89,67.89,0,0,0-67.79,67.84V1000a67.9,67.9,0,0,0,67.79,67.85,67.1,67.1,0,0,0,30.18-7.18L915.31,689.15a67.77,67.77,0,0,0,0-121.34L168.82,196.27a67.22,67.22,0,0,0-30.18-7.17Z"/><line class="cls-3" x1="86.44" y1="783.34" x2="652.53" y2="794.23"/><line class="cls-3" x1="86.44" y1="465.96" x2="934.52" y2="627.96"/><line class="cls-3" x1="116.2" y1="208.29" x2="653.95" y2="795.64"/><line class="cls-3" x1="560.43" y1="405.26" x2="86.44" y2="787.14"/><path class="cls-2" d="M119.41,173.25a40,40,0,1,0,40,40,40,40,0,0,0-40-40Z"/><path class="cls-2" d="M550.41,374.25a40,40,0,1,0,40,40,40,40,0,0,0-40-40Z"/><path class="cls-2" d="M412.41,485.25a40,40,0,1,0,40,40,40,40,0,0,0-40-40Z"/><path class="cls-2" d="M647.41,756.25a40,40,0,1,0,40,40,40,40,0,0,0-40-40Z"/><path class="cls-2" d="M89.41,431.25a40,40,0,1,0,40,40,40,40,0,0,0-40-40Z"/><path class="cls-2" d="M94.41,732.25a40,40,0,1,0,40,40,40,40,0,0,0-40-40Z"/><path class="cls-2" d="M927.41,583.25a40,40,0,1,0,40,40,40,40,0,0,0-40-40Z"/><text class="cls-4" transform="translate(1139.23 649.8)">net<tspan class="cls-5" x="948.14" y="0">r</tspan><tspan class="cls-6" x="1157.48" y="0">o</tspan><tspan class="cls-7"><tspan x="0" y="417">s</tspan><tspan class="cls-8" x="316.3" y="417">ound</tspan></tspan></text></g></g></svg>